<svg width="40" height="40" viewBox="0 0 40 40" fill="none" xmlns="http://www.w3.org/2000/svg">
<path d="M19.9999 2.08325C10.1199 2.08325 2.08325 10.1216 2.08325 19.9999C2.08325 29.8783 10.1199 37.9166 19.9999 37.9166C29.8799 37.9166 37.9166 29.8783 37.9166 19.9999C37.9166 10.1216 29.8799 2.08325 19.9999 2.08325ZM19.9999 35.4166C11.4983 35.4166 4.58325 28.5016 4.58325 19.9999C4.58325 11.4983 11.4983 4.58325 19.9999 4.58325C28.5016 4.58325 35.4166 11.4983 35.4166 19.9999C35.4166 28.5016 28.5016 35.4166 19.9999 35.4166ZM26.7166 15.2266C27.2049 15.7149 27.2049 16.5066 26.7166 16.995L18.9383 24.7733C18.6949 25.0166 18.3749 25.1399 18.0549 25.1399C17.7349 25.1399 17.4149 25.0183 17.1716 24.7733L13.2833 20.8849C12.7949 20.3966 12.7949 19.6049 13.2833 19.1165C13.7716 18.6282 14.5633 18.6282 15.0516 19.1165L18.0566 22.1216L24.9499 15.2283C25.4383 14.74 26.2283 14.7399 26.7166 15.2266Z" fill="white"/>
</svg>
