<svg width="40" height="40" viewBox="0 0 40 40" fill="none" xmlns="http://www.w3.org/2000/svg">
<path d="M35.1518 11.7167L28.2833 4.84823C27.585 4.14989 26.6182 3.75 25.6315 3.75H14.3685C13.3818 3.75 12.415 4.14989 11.7167 4.84823L4.84823 11.7167C4.14989 12.415 3.75 13.3818 3.75 14.3685V25.6315C3.75 26.6182 4.14989 27.585 4.84823 28.2833L11.7167 35.1518C12.415 35.8501 13.3818 36.25 14.3685 36.25H25.6315C26.6182 36.25 27.585 35.8501 28.2833 35.1518L35.1518 28.2833C35.8501 27.585 36.25 26.6182 36.25 25.6315V14.3685C36.25 13.3818 35.8501 12.415 35.1518 11.7167ZM33.75 25.6315C33.75 25.9598 33.6167 26.2832 33.3834 26.5149L26.5149 33.3834C26.2816 33.6167 25.9598 33.75 25.6315 33.75H14.3685C14.0402 33.75 13.7168 33.6167 13.4851 33.3834L6.61662 26.5149C6.38328 26.2816 6.25 25.9598 6.25 25.6315V14.3685C6.25 14.0402 6.38328 13.7168 6.61662 13.4851L13.4851 6.61662C13.7184 6.38328 14.0402 6.25 14.3685 6.25H25.6315C25.9598 6.25 26.2832 6.38328 26.5149 6.61662L33.3834 13.4851C33.6167 13.7184 33.75 14.0402 33.75 14.3685V25.6315ZM25.05 16.7167L21.7668 20L25.05 23.2833C25.5384 23.7716 25.5384 24.5633 25.05 25.0517C24.8067 25.295 24.4867 25.4183 24.1667 25.4183C23.8467 25.4183 23.5266 25.2967 23.2833 25.0517L20 21.7684L16.7167 25.0517C16.4734 25.295 16.1533 25.4183 15.8333 25.4183C15.5133 25.4183 15.1933 25.2967 14.95 25.0517C14.4616 24.5633 14.4616 23.7716 14.95 23.2833L18.2332 20L14.95 16.7167C14.4616 16.2284 14.4616 15.4367 14.95 14.9483C15.4383 14.46 16.23 14.46 16.7183 14.9483L20.0016 18.2316L23.2849 14.9483C23.7732 14.46 24.565 14.46 25.0533 14.9483C25.5416 15.4367 25.5384 16.2284 25.05 16.7167Z" fill="white"/>
</svg>
