<svg width="32" height="32" viewBox="0 0 32 32" fill="none" xmlns="http://www.w3.org/2000/svg">
<path d="M24.9225 30.3333H7.07747C5.1588 30.3333 3.42546 29.3519 2.4388 27.7079C1.45613 26.0679 1.40794 24.0827 2.30794 22.3974L11.1159 5.92407C12.0932 4.09341 13.9201 3.00122 15.9974 3.00122C18.0747 3.00122 19.9012 4.09341 20.8786 5.92407L29.6865 22.3974C30.5892 24.0827 30.5413 26.0679 29.5573 27.7079C28.5773 29.3519 26.8425 30.3333 24.9225 30.3333ZM16 4.99992C14.672 4.99992 13.5065 5.69715 12.8812 6.86515L4.07324 23.3385C3.50657 24.3985 3.53859 25.6466 4.15592 26.6786C4.77725 27.7146 5.86944 28.332 7.07877 28.332H24.9241C26.1335 28.332 27.2267 27.7133 27.8467 26.6786C28.464 25.648 28.4934 24.3998 27.9281 23.3385L19.1201 6.86515C18.4934 5.69715 17.328 4.99992 16 4.99992ZM17 18.6666V13.3333C17 12.7813 16.552 12.3333 16 12.3333C15.448 12.3333 15 12.7813 15 13.3333V18.6666C15 19.2186 15.448 19.6666 16 19.6666C16.552 19.6666 17 19.2186 17 18.6666ZM17.36 22.6666C17.36 21.9306 16.764 21.3333 16.0267 21.3333H16.0133C15.2773 21.3333 14.6865 21.9306 14.6865 22.6666C14.6865 23.4026 15.2907 23.9999 16.0267 23.9999C16.7627 23.9999 17.36 23.4026 17.36 22.6666Z" fill="white"/>
</svg>
